<svg xmlns="http://www.w3.org/2000/svg">

    <symbol id="tickete-logo" viewbox="0 0 13 3" fill="none">
        <path
            d="M12.232 26.0569C12.8462 26.0569 13.4463 25.9955 14.0227 25.8726C14.6133 25.7498 15.1992 25.5938 15.7756 25.4096V29.6005C15.1708 29.8698 14.4243 30.0919 13.5219 30.2667C12.6336 30.451 11.665 30.5455 10.6066 30.5455C9.37813 30.5455 8.26779 30.347 7.28503 29.9549C6.31171 29.5485 5.54628 28.854 4.9793 27.8712C4.42649 26.8743 4.14772 25.4899 4.14772 23.7181V13.7628L1.45456 14.2731V10.0444L4.14772 9.56715V5.14468L9.77502 4.15247V8.57965L15.5536 7.55908V11.7878L9.77502 12.8084V23.7134C9.77502 24.5024 9.99709 25.093 10.4412 25.4852C10.8948 25.8679 11.4949 26.0569 12.232 26.0569Z"
            fill="currentColor" stroke="currentColor" stroke-width="0.472485"
            stroke-linejoin="round"></path>
        <path
            d="M100.717 26.0569C101.331 26.0569 101.931 25.9955 102.508 25.8726C103.098 25.7498 103.684 25.5938 104.261 25.4096V29.6005C103.656 29.8698 102.909 30.0919 102.007 30.2667C101.119 30.451 100.15 30.5455 99.0916 30.5455C97.8631 30.5455 96.7528 30.347 95.77 29.9549C94.7967 29.5485 94.0313 28.854 93.4643 27.8712C92.9115 26.8743 92.6327 25.4899 92.6327 23.7181V13.7628L89.9396 14.2731V10.0444L92.6327 9.56715V5.14468L98.26 4.15247V8.57965L104.039 7.55908V11.7878L98.26 12.8084V23.7134C98.26 24.5024 98.4821 25.093 98.9262 25.4852C99.3798 25.8679 99.9799 26.0569 100.717 26.0569Z"
            fill="currentColor" stroke="currentColor" stroke-width="0.472485"
            stroke-linejoin="round"></path>
        <path d="M24.4754 14.2638V30.1723H18.8481V15.2088L24.4754 14.2638Z" fill="currentColor"
            stroke="currentColor" stroke-width="0.472485" stroke-linejoin="round"></path>
        <path
            d="M21.6617 12.2154C23.354 12.2154 24.7258 10.8435 24.7258 9.15127C24.7258 7.45901 23.354 6.08716 21.6617 6.08716C19.9694 6.08716 18.5976 7.45901 18.5976 9.15127C18.5976 10.8435 19.9694 12.2154 21.6617 12.2154Z"
            fill="currentColor" stroke="currentColor" stroke-width="0.472485"
            stroke-linejoin="round"></path>
        <path
            d="M37.9931 30.5408C35.952 30.5408 34.2085 30.1722 32.7722 29.4352C31.3311 28.6839 30.2397 27.5263 29.4884 25.9671C28.7372 24.4032 28.3639 22.4046 28.3639 19.9666C28.3639 17.5285 28.7891 15.3882 29.6396 13.8006C30.4995 12.1989 31.6902 11.0271 33.2021 10.2759C34.7283 9.52463 36.4954 9.15137 38.4987 9.15137C39.9256 9.15137 41.1541 9.29311 42.1888 9.5766C43.233 9.84592 44.1449 10.1719 44.9198 10.5546L43.2566 14.911C42.3684 14.5519 41.5462 14.2637 40.7855 14.0416C40.0248 13.8101 39.2594 13.6919 38.4987 13.6919C37.5159 13.6919 36.6938 13.9235 36.0418 14.3912C35.3897 14.8448 34.9031 15.5346 34.5818 16.4607C34.2605 17.3821 34.0999 18.5396 34.0999 19.9288C34.0999 21.3179 34.27 22.4282 34.6149 23.3259C34.9598 24.2236 35.4559 24.8946 36.1079 25.3387C36.76 25.7687 37.5537 25.986 38.4892 25.986C39.6563 25.986 40.6958 25.8301 41.6077 25.523C42.5195 25.2017 43.4031 24.7623 44.263 24.1953V29.0146C43.4031 29.558 42.4959 29.9454 41.551 30.177C40.6154 30.4226 39.4295 30.5455 37.9884 30.5455L37.9931 30.5408Z"
            fill="currentColor" stroke="currentColor" stroke-width="0.472485"
            stroke-linejoin="round"></path>
        <path
            d="M53.7529 1.45459V14.3015C53.7529 15.0763 53.7198 15.8512 53.6584 16.6261C53.597 17.401 53.5308 18.1758 53.4552 18.9507H53.5308C53.9136 18.4074 54.301 17.8734 54.6932 17.3443C55.0995 16.8151 55.5295 16.3048 55.983 15.8134L61.7615 9.53881H68.1117L59.9188 18.4924L68.6126 30.177H62.1159L56.172 21.814L53.7529 23.7512V30.1722H48.1256V2.47303L53.7529 1.45459Z"
            fill="currentColor" stroke="currentColor" stroke-width="0.472485"
            stroke-linejoin="round"></path>
        <path
            d="M77.3313 9.26947C79.2112 8.93803 80.8897 9.01622 82.3765 9.50253C83.8616 9.9795 85.0923 10.8372 86.0733 12.0747C87.0544 13.3123 87.7173 14.9226 88.0653 16.8955L88.5394 19.585L75.4364 21.8955C75.7725 23.4482 76.4544 24.5945 77.4876 25.3383C78.5276 26.0666 79.8293 26.2928 81.3927 26.0171C82.6909 25.7881 83.8536 25.4441 84.8864 24.9885C85.9191 24.5329 86.956 23.9374 88.0016 23.2014L88.7582 27.4915C87.8408 28.1666 86.8486 28.7158 85.786 29.1382C84.7374 29.5582 83.4271 29.9092 81.8684 30.184C79.8303 30.5434 77.9584 30.4849 76.2536 30.013C74.5581 29.5396 73.127 28.6069 71.9582 27.2297C70.8025 25.8454 70.0193 23.9876 69.6066 21.6472C69.1938 19.3067 69.2396 17.226 69.7626 15.5122C70.2971 13.7818 71.214 12.3967 72.5168 11.3514C73.8182 10.2968 75.4275 9.60033 77.3398 9.26321L77.3313 9.26947ZM78.0643 13.2087C76.9848 13.399 76.1521 13.9009 75.5579 14.7205C74.9766 15.5331 74.7637 16.6933 74.9122 18.188L82.6922 16.8162C82.5329 15.9951 82.2544 15.2861 81.8481 14.6957C81.4557 14.1028 80.9428 13.6703 80.3087 13.3934C79.6838 13.115 78.9391 13.0544 78.0643 13.2087Z"
            fill="currentColor" stroke="currentColor" stroke-width="0.472485"
            stroke-linejoin="round"></path>
        <path
            d="M113.875 9.26911C115.754 8.93766 117.433 9.01586 118.92 9.50216C120.405 9.97914 121.635 10.8368 122.617 12.0744C123.597 13.3119 124.261 14.9223 124.608 16.8951L125.083 19.5846L111.98 21.8951C112.316 23.4478 112.998 24.5942 114.031 25.338C115.071 26.0662 116.373 26.2924 117.936 26.0167C119.234 25.7879 120.397 25.4437 121.43 24.9881C122.462 24.5325 123.499 23.9371 124.545 23.201L125.302 27.4911C124.384 28.1663 123.392 28.7154 122.33 29.1378C121.281 29.5579 119.971 29.9088 118.407 30.1845C116.369 30.5438 114.502 30.4845 112.792 30.0135C111.097 29.54 109.666 28.6073 108.497 27.2302C107.341 25.8459 106.558 23.9881 106.145 21.6476C105.732 19.3072 105.778 17.2265 106.301 15.5126C106.831 13.7831 107.753 12.3972 109.056 11.3518C110.357 10.2972 111.966 9.60079 113.878 9.26367L113.875 9.26911ZM114.608 13.2083C113.528 13.3987 112.691 13.9014 112.101 14.7202C111.52 15.5327 111.307 16.6929 111.456 18.1876L119.235 16.8159C119.077 15.9947 118.798 15.2857 118.392 14.6954C117.998 14.1025 117.486 13.67 116.852 13.3931C116.227 13.1147 115.478 13.0549 114.608 13.2083Z"
            fill="currentColor" stroke="currentColor" stroke-width="0.472485"
            stroke-linejoin="round"></path>
    </symbol>

    <symbol id="lock" fill="none">
        <path
            d="M13.2954 6.25V6.75H13.7954H16.2954C16.4943 6.75 16.6851 6.82902 16.8257 6.96967C16.9664 7.11032 17.0454 7.30109 17.0454 7.5V16.25C17.0454 16.4489 16.9664 16.6397 16.8257 16.7803C16.6851 16.921 16.4943 17 16.2954 17H3.79541C3.5965 17 3.40573 16.921 3.26508 16.7803C3.12443 16.6397 3.04541 16.4489 3.04541 16.25V7.5C3.04541 7.30109 3.12443 7.11032 3.26508 6.96967C3.40573 6.82902 3.5965 6.75 3.79541 6.75H6.29541H6.79541V6.25V4.375C6.79541 3.51305 7.13782 2.6864 7.74731 2.0769C8.35681 1.46741 9.18346 1.125 10.0454 1.125C10.9074 1.125 11.734 1.46741 12.3435 2.0769C12.953 2.6864 13.2954 3.51305 13.2954 4.375V6.25ZM12.5454 6.75H13.0454V6.25V4.375C13.0454 3.57935 12.7293 2.81629 12.1667 2.25368L11.8285 2.59186L12.1667 2.25368C11.6041 1.69107 10.8411 1.375 10.0454 1.375C9.24976 1.375 8.4867 1.69107 7.92409 2.25368C7.36148 2.81629 7.04541 3.57935 7.04541 4.375V6.25V6.75H7.54541H12.5454ZM11.2406 11.0764L10.8403 11.3438L11.2406 11.0764C11.0827 10.84 10.8582 10.6557 10.5955 10.5469C10.3328 10.4381 10.0438 10.4097 9.76497 10.4651C9.48612 10.5206 9.22998 10.6575 9.02894 10.8585C8.82791 11.0596 8.691 11.3157 8.63553 11.5946C8.58006 11.8734 8.60853 12.1624 8.71733 12.4251C8.82613 12.6878 9.01038 12.9123 9.24678 13.0702C9.48317 13.2282 9.7611 13.3125 10.0454 13.3125C10.4267 13.3125 10.7923 13.161 11.0619 12.8915C11.3315 12.6219 11.4829 12.2562 11.4829 11.875C11.4829 11.5907 11.3986 11.3128 11.2406 11.0764Z"
            fill="currentColor" stroke="currentColor"></path>
    </symbol>

    <symbol id="question-mark" fill="none">
        <path
            d="M11.4829 14.0625C11.4829 14.2479 11.4279 14.4292 11.3249 14.5833C11.2219 14.7375 11.0755 14.8577 10.9042 14.9286C10.7329 14.9996 10.5444 15.0182 10.3625 14.982C10.1807 14.9458 10.0136 14.8565 9.8825 14.7254C9.75139 14.5943 9.6621 14.4273 9.62593 14.2454C9.58975 14.0635 9.60832 13.875 9.67928 13.7037C9.75023 13.5324 9.8704 13.386 10.0246 13.283C10.1787 13.18 10.36 13.125 10.5454 13.125C10.7941 13.125 11.0325 13.2238 11.2083 13.3996C11.3841 13.5754 11.4829 13.8139 11.4829 14.0625ZM10.5454 5.625C8.82198 5.625 7.42041 6.88672 7.42041 8.4375V8.75C7.42041 8.91576 7.48626 9.07473 7.60347 9.19194C7.72068 9.30915 7.87965 9.375 8.04541 9.375C8.21117 9.375 8.37015 9.30915 8.48736 9.19194C8.60457 9.07473 8.67041 8.91576 8.67041 8.75V8.4375C8.67041 7.57812 9.51182 6.875 10.5454 6.875C11.579 6.875 12.4204 7.57812 12.4204 8.4375C12.4204 9.29688 11.579 10 10.5454 10C10.3797 10 10.2207 10.0658 10.1035 10.1831C9.98626 10.3003 9.92041 10.4592 9.92041 10.625V11.25C9.92041 11.4158 9.98626 11.5747 10.1035 11.6919C10.2207 11.8092 10.3797 11.875 10.5454 11.875C10.7112 11.875 10.8701 11.8092 10.9874 11.6919C11.1046 11.5747 11.1704 11.4158 11.1704 11.25V11.1938C12.5954 10.932 13.6704 9.79531 13.6704 8.4375C13.6704 6.88672 12.2689 5.625 10.5454 5.625ZM18.6704 10C18.6704 11.607 18.1939 13.1779 17.3011 14.514C16.4083 15.8502 15.1394 16.8916 13.6547 17.5065C12.1701 18.1215 10.5364 18.2824 8.96031 17.9689C7.38421 17.6554 5.93647 16.8815 4.80017 15.7452C3.66387 14.6089 2.89004 13.1612 2.57653 11.5851C2.26303 10.009 2.42393 8.37535 3.03889 6.8907C3.65385 5.40605 4.69526 4.1371 6.03141 3.24431C7.36756 2.35152 8.93844 1.875 10.5454 1.875C12.6996 1.87727 14.7649 2.73403 16.2881 4.25727C17.8114 5.78051 18.6681 7.84581 18.6704 10ZM17.4204 10C17.4204 8.64025 17.0172 7.31104 16.2618 6.18045C15.5063 5.04987 14.4326 4.16868 13.1764 3.64833C11.9201 3.12798 10.5378 2.99183 9.20417 3.2571C7.87055 3.52237 6.64554 4.17716 5.68405 5.13864C4.72257 6.10013 4.06779 7.32513 3.80251 8.65875C3.53724 9.99237 3.67339 11.3747 4.19374 12.6309C4.71409 13.8872 5.59528 14.9609 6.72587 15.7164C7.85646 16.4718 9.18567 16.875 10.5454 16.875C12.3681 16.8729 14.1156 16.1479 15.4045 14.8591C16.6934 13.5702 17.4183 11.8227 17.4204 10Z"
            fill="currentColor"></path>
    </symbol>

    <symbol id="trophy" fill="none">
        <path
            d="M12.6875 3.5H11.375V3.0625C11.375 2.83044 11.2828 2.60788 11.1187 2.44378C10.9546 2.27969 10.7321 2.1875 10.5 2.1875H3.5C3.26794 2.1875 3.04538 2.27969 2.88128 2.44378C2.71719 2.60788 2.625 2.83044 2.625 3.0625V3.5H1.3125C1.08044 3.5 0.857876 3.59219 0.693782 3.75628C0.529687 3.92038 0.4375 4.14294 0.4375 4.375V5.25C0.4375 5.83016 0.667968 6.38656 1.0782 6.7968C1.28133 6.99992 1.52248 7.16105 1.78788 7.27099C2.05328 7.38092 2.33773 7.4375 2.625 7.4375H2.82461C3.08232 8.25421 3.5737 8.97751 4.23801 9.51799C4.90232 10.0585 5.71044 10.3925 6.5625 10.4787V11.8125H5.25C5.13397 11.8125 5.02269 11.8586 4.94064 11.9406C4.85859 12.0227 4.8125 12.134 4.8125 12.25C4.8125 12.366 4.85859 12.4773 4.94064 12.5594C5.02269 12.6414 5.13397 12.6875 5.25 12.6875H8.75C8.86603 12.6875 8.97731 12.6414 9.05936 12.5594C9.14141 12.4773 9.1875 12.366 9.1875 12.25C9.1875 12.134 9.14141 12.0227 9.05936 11.9406C8.97731 11.8586 8.86603 11.8125 8.75 11.8125H7.4375V10.477C9.18422 10.3004 10.6334 9.07484 11.1606 7.4375H11.375C11.9552 7.4375 12.5116 7.20703 12.9218 6.7968C13.332 6.38656 13.5625 5.83016 13.5625 5.25V4.375C13.5625 4.14294 13.4703 3.92038 13.3062 3.75628C13.1421 3.59219 12.9196 3.5 12.6875 3.5ZM2.625 6.5625C2.2769 6.5625 1.94306 6.42422 1.69692 6.17808C1.45078 5.93194 1.3125 5.5981 1.3125 5.25V4.375H2.625V6.125C2.625 6.27083 2.63211 6.41667 2.64633 6.5625H2.625ZM12.6875 5.25C12.6875 5.5981 12.5492 5.93194 12.3031 6.17808C12.0569 6.42422 11.7231 6.5625 11.375 6.5625H11.3477C11.3656 6.40088 11.3747 6.2384 11.375 6.07578V4.375H12.6875V5.25Z"
            fill="currentColor"></path>
    </symbol>

    <symbol id="info-fill" fill="none">
        <path
            d="M8 1.5C6.71442 1.5 5.45772 1.88122 4.3888 2.59545C3.31988 3.30968 2.48676 4.32484 1.99479 5.51256C1.50282 6.70028 1.37409 8.00721 1.6249 9.26809C1.8757 10.529 2.49477 11.6872 3.40381 12.5962C4.31285 13.5052 5.47104 14.1243 6.73192 14.3751C7.99279 14.6259 9.29973 14.4972 10.4874 14.0052C11.6752 13.5132 12.6903 12.6801 13.4046 11.6112C14.1188 10.5423 14.5 9.28558 14.5 8C14.4982 6.27665 13.8128 4.62441 12.5942 3.40582C11.3756 2.18722 9.72335 1.50182 8 1.5ZM7.75 4.5C7.89834 4.5 8.04334 4.54399 8.16668 4.6264C8.29002 4.70881 8.38615 4.82594 8.44291 4.96299C8.49968 5.10003 8.51453 5.25083 8.48559 5.39632C8.45665 5.5418 8.38522 5.67544 8.28033 5.78033C8.17544 5.88522 8.04181 5.95665 7.89632 5.98559C7.75084 6.01453 7.60003 5.99968 7.46299 5.94291C7.32595 5.88614 7.20881 5.79001 7.1264 5.66668C7.04399 5.54334 7 5.39834 7 5.25C7 5.05109 7.07902 4.86032 7.21967 4.71967C7.36032 4.57902 7.55109 4.5 7.75 4.5ZM8.5 11.5C8.23479 11.5 7.98043 11.3946 7.7929 11.2071C7.60536 11.0196 7.5 10.7652 7.5 10.5V8C7.36739 8 7.24022 7.94732 7.14645 7.85355C7.05268 7.75979 7 7.63261 7 7.5C7 7.36739 7.05268 7.24021 7.14645 7.14645C7.24022 7.05268 7.36739 7 7.5 7C7.76522 7 8.01957 7.10536 8.20711 7.29289C8.39465 7.48043 8.5 7.73478 8.5 8V10.5C8.63261 10.5 8.75979 10.5527 8.85356 10.6464C8.94732 10.7402 9 10.8674 9 11C9 11.1326 8.94732 11.2598 8.85356 11.3536C8.75979 11.4473 8.63261 11.5 8.5 11.5Z"
            fill="currentColor"></path>
    </symbol>

    <symbol id="info" fill="none">
        <path
            d="M8 1.50012C6.71442 1.50012 5.45772 1.88134 4.3888 2.59557C3.31988 3.3098 2.48676 4.32496 1.99479 5.51268C1.50282 6.7004 1.37409 8.00733 1.6249 9.26821C1.8757 10.5291 2.49477 11.6873 3.40381 12.5963C4.31285 13.5054 5.47104 14.1244 6.73192 14.3752C7.99279 14.626 9.29973 14.4973 10.4874 14.0053C11.6752 13.5134 12.6903 12.6802 13.4046 11.6113C14.1188 10.5424 14.5 9.2857 14.5 8.00012C14.4982 6.27677 13.8128 4.62453 12.5942 3.40594C11.3756 2.18735 9.72335 1.50194 8 1.50012ZM8 13.5001C6.91221 13.5001 5.84884 13.1776 4.94437 12.5732C4.0399 11.9689 3.33495 11.1099 2.91867 10.1049C2.50238 9.09989 2.39347 7.99402 2.60568 6.92713C2.8179 5.86023 3.34173 4.88022 4.11092 4.11103C4.8801 3.34185 5.86011 2.81802 6.92701 2.6058C7.9939 2.39358 9.09977 2.5025 10.1048 2.91878C11.1098 3.33507 11.9687 4.04002 12.5731 4.94449C13.1774 5.84896 13.5 6.91232 13.5 8.00012C13.4983 9.4583 12.9184 10.8563 11.8873 11.8874C10.8562 12.9185 9.45819 13.4985 8 13.5001ZM9 11.0001C9 11.1327 8.94732 11.2599 8.85356 11.3537C8.75979 11.4474 8.63261 11.5001 8.5 11.5001C8.23479 11.5001 7.98043 11.3948 7.7929 11.2072C7.60536 11.0197 7.5 10.7653 7.5 10.5001V8.00012C7.36739 8.00012 7.24022 7.94744 7.14645 7.85368C7.05268 7.75991 7 7.63273 7 7.50012C7 7.36751 7.05268 7.24034 7.14645 7.14657C7.24022 7.0528 7.36739 7.00012 7.5 7.00012C7.76522 7.00012 8.01957 7.10548 8.20711 7.29302C8.39465 7.48055 8.5 7.73491 8.5 8.00012V10.5001C8.63261 10.5001 8.75979 10.5528 8.85356 10.6466C8.94732 10.7403 9 10.8675 9 11.0001ZM7 5.25012C7 5.10179 7.04399 4.95678 7.1264 4.83344C7.20881 4.71011 7.32595 4.61398 7.46299 4.55721C7.60003 4.50045 7.75083 4.48559 7.89632 4.51453C8.04181 4.54347 8.17544 4.6149 8.28033 4.71979C8.38522 4.82468 8.45665 4.95832 8.48559 5.1038C8.51453 5.24929 8.49968 5.40009 8.44291 5.53713C8.38615 5.67418 8.29002 5.79131 8.16668 5.87372C8.04334 5.95614 7.89834 6.00012 7.75 6.00012C7.55109 6.00012 7.36032 5.9211 7.21967 5.78045C7.07902 5.6398 7 5.44903 7 5.25012Z"
            fill="currentColor"></path>
    </symbol>

    <symbol id="rating-start" fill="none">
        <path
            d="M13.3087 5.48563C13.2537 5.31626 13.1502 5.1668 13.0109 5.05585C12.8716 4.94491 12.7028 4.8774 12.5254 4.86172L9.15681 4.57131L7.83637 1.43131C7.76762 1.26655 7.65166 1.12581 7.50309 1.02681C7.35452 0.927822 7.17998 0.875 7.00146 0.875C6.82293 0.875 6.64839 0.927822 6.49982 1.02681C6.35125 1.12581 6.23529 1.26655 6.16654 1.43131L4.85008 4.57131L1.47752 4.86342C1.29944 4.87838 1.12974 4.94559 0.989707 5.05662C0.849671 5.16764 0.745532 5.31754 0.690348 5.48751C0.635164 5.65749 0.631392 5.83997 0.679505 6.01208C0.727618 6.18419 0.825475 6.33826 0.960803 6.45498L3.51943 8.69087L2.75258 12.0112C2.71203 12.185 2.7236 12.3669 2.78584 12.5341C2.84809 12.7013 2.95824 12.8464 3.10254 12.9514C3.24683 13.0564 3.41886 13.1164 3.59712 13.1242C3.77538 13.1319 3.95196 13.0869 4.10478 12.9948L6.99749 11.2364L9.89643 12.9948C10.0492 13.0869 10.2258 13.1319 10.4041 13.1242C10.5823 13.1164 10.7544 13.0564 10.8987 12.9514C11.043 12.8464 11.1531 12.7013 11.2154 12.5341C11.2776 12.3669 11.2892 12.185 11.2486 12.0112L10.4823 8.68746L13.0404 6.45498C13.1757 6.33786 13.2734 6.18334 13.3211 6.01087C13.3689 5.8384 13.3645 5.65566 13.3087 5.48563Z"
            fill="currentColor"></path>
        <g opacity="0.81" filter="url(#filter0_f_2003_1650)">
            <path
                d="M12.4441 5.76635L9.88603 7.99884C9.76153 8.10714 9.66892 8.24733 9.61815 8.40433C9.56738 8.56134 9.56037 8.72922 9.5979 8.88991L10.3664 12.216L7.46977 10.4576C7.32845 10.3716 7.16617 10.3261 7.0007 10.3261C6.83523 10.3261 6.67295 10.3716 6.53163 10.4576L3.63892 12.216L4.40236 8.89217C4.43988 8.73149 4.43288 8.56361 4.38211 8.4066C4.33134 8.2496 4.23873 8.1094 4.11423 8.00111C6.82147 8.00111 9.88603 7.45144 12.4452 5.76465V5.76862L12.4441 5.76635Z"
                fill="currentColor" fill-opacity="0.8"></path>
        </g>
        <g filter="url(#filter1_f_2003_1650)">
            <path
                d="M5.46012 6.14715C4.17842 5.86935 1.63301 5.86402 1.63301 5.86402C3.36304 7.36012 6.43489 8.32556 9.30643 7.09909C9.30643 7.09909 6.74182 6.42495 5.46012 6.14715Z"
                fill="currentColor"></path>
        </g>
        <g filter="url(#filter2_f_2003_1650)">
            <path
                d="M4.66908 7.82938C4.0772 7.56067 2.84457 7.29173 2.84457 7.29173C3.52617 8.19759 4.91338 8.98677 6.43292 8.69306C6.43292 8.69306 5.26097 8.09809 4.66908 7.82938Z"
                fill="currentColor"></path>
        </g>
        <g filter="url(#filter3_f_2003_1650)">
            <path
                d="M4.09773 10.0068C3.89194 10.6234 3.75245 11.8773 3.75245 11.8773C4.58263 11.1053 5.2235 9.64361 4.77359 8.16278C4.77359 8.16278 4.30353 9.39018 4.09773 10.0068Z"
                fill="currentColor"></path>
        </g>
        <g opacity="0.81" filter="url(#filter4_f_2003_1650)">
            <path
                d="M10.0902 12.3852C10.0902 12.3852 9.04233 11.6826 8.59039 11.2154C8.13844 10.7482 7.26667 9.76461 7.26667 9.76461C6.8951 8.35786 8.28015 7.38683 9.37226 7.87023C9.66814 8.01865 9.48649 8.09011 9.23537 8.29108L8.72342 9.86505C8.72342 10.844 9.89497 11.6776 10.0902 12.3852Z"
                fill="currentColor"></path>
        </g>
        <g filter="url(#filter5_f_2003_1650)">
            <path
                d="M3.5535 10.968C3.39427 11.3199 3.24495 12.0716 3.24495 12.0716C3.73258 11.6973 4.03031 10.8538 4.03031 9.83664C4.03031 9.83664 3.71274 10.6161 3.5535 10.968Z"
                fill="currentColor"></path>
        </g>
        <g filter="url(#filter6_f_2003_1650)">
            <path
                d="M9.10833 11.8499C9.33387 12.0801 9.87336 12.4234 9.87336 12.4234C9.72967 11.9311 9.16364 11.4446 8.37255 11.1371C8.37255 11.1371 8.88279 11.6197 9.10833 11.8499Z"
                fill="currentColor"></path>
        </g>
        <g filter="url(#filter7_f_2003_1650)">
            <path
                d="M6.66965 2.23629C6.8126 2.01987 6.9852 1.49176 6.9852 1.49176C6.61173 1.61231 6.32749 2.16006 6.2345 2.94427C6.2345 2.94427 6.52669 2.45272 6.66965 2.23629Z"
                fill="currentColor"></path>
        </g>
        <g filter="url(#filter8_f_2003_1650)">
            <path
                d="M12.444 5.76635C8.31596 7.23232 5.38195 7.31877 1.55497 5.76975C1.55476 5.76806 1.55476 5.76635 1.55497 5.76465L4.92639 5.47311C5.09099 5.4586 5.24851 5.39943 5.38195 5.30197C5.51539 5.20451 5.61969 5.07247 5.6836 4.92009L7.00006 1.78406L8.31596 4.92009C8.37987 5.07247 8.48417 5.20451 8.61761 5.30197C8.75105 5.39943 8.90857 5.4586 9.07317 5.47311L12.4452 5.76465V5.76862L12.444 5.76635Z"
                fill="currentColor" fill-opacity="0.15"></path>
        </g>
        <path d="M6.99914 10.7889L4.29675 12.8802L6.99914 11.2328L9.74423 12.8976L6.99914 10.7889Z"
            fill="currentColor" fill-opacity="0.5"></path>
        <path d="M10.0549 8.53133L11.0694 11.2459L10.4803 8.68756L12.8962 6.57559L10.0549 8.53133Z"
            fill="currentColor" fill-opacity="0.5"></path>
        <g filter="url(#filter9_f_2003_1650)">
            <path
                d="M8.48085 6.16587C6.04365 6.35716 7.10395 2.86253 6.77171 2.95184C6.43947 3.04115 5.96917 5.10762 5.52231 5.36299C5.07544 5.61836 3.2563 5.76199 3.2563 5.76199C3.24429 6.55811 5.27781 7.37826 8.48085 6.16587Z"
                fill="currentColor"></path>
        </g>
        <defs>
            <filter id="filter0_f_2003_1650" x="3.05558" y="5.18132" width="9.97294"
                height="7.61796" filterUnits="userSpaceOnUse" color-interpolation-filters="sRGB">
                <feFlood flood-opacity="0" result="BackgroundImageFix"></feFlood>
                <feBlend mode="normal" in="SourceGraphic" in2="BackgroundImageFix" result="shape"></feBlend>
                <feGaussianBlur stdDeviation="0.291667" result="effect1_foregroundBlur_2003_1650"></feGaussianBlur>
            </filter>
            <filter id="filter1_f_2003_1650" x="1.04972" y="5.28068" width="8.84001"
                height="2.96025" filterUnits="userSpaceOnUse" color-interpolation-filters="sRGB">
                <feFlood flood-opacity="0" result="BackgroundImageFix"></feFlood>
                <feBlend mode="normal" in="SourceGraphic" in2="BackgroundImageFix" result="shape"></feBlend>
                <feGaussianBlur stdDeviation="0.291667" result="effect1_foregroundBlur_2003_1650"></feGaussianBlur>
            </filter>
            <filter id="filter2_f_2003_1650" x="2.26127" y="6.70841" width="4.75492"
                height="2.63041" filterUnits="userSpaceOnUse" color-interpolation-filters="sRGB">
                <feFlood flood-opacity="0" result="BackgroundImageFix"></feFlood>
                <feBlend mode="normal" in="SourceGraphic" in2="BackgroundImageFix" result="shape"></feBlend>
                <feGaussianBlur stdDeviation="0.291667" result="effect1_foregroundBlur_2003_1650"></feGaussianBlur>
            </filter>
            <filter id="filter3_f_2003_1650" x="3.16911" y="7.57951" width="2.3361" height="4.88102"
                filterUnits="userSpaceOnUse" color-interpolation-filters="sRGB">
                <feFlood flood-opacity="0" result="BackgroundImageFix"></feFlood>
                <feBlend mode="normal" in="SourceGraphic" in2="BackgroundImageFix" result="shape"></feBlend>
                <feGaussianBlur stdDeviation="0.291667" result="effect1_foregroundBlur_2003_1650"></feGaussianBlur>
            </filter>
            <filter id="filter4_f_2003_1650" x="6.62174" y="7.1613" width="4.0518" height="5.80729"
                filterUnits="userSpaceOnUse" color-interpolation-filters="sRGB">
                <feFlood flood-opacity="0" result="BackgroundImageFix"></feFlood>
                <feBlend mode="normal" in="SourceGraphic" in2="BackgroundImageFix" result="shape"></feBlend>
                <feGaussianBlur stdDeviation="0.291667" result="effect1_foregroundBlur_2003_1650"></feGaussianBlur>
            </filter>
            <filter id="filter5_f_2003_1650" x="2.95333" y="9.545" width="1.36861" height="2.81832"
                filterUnits="userSpaceOnUse" color-interpolation-filters="sRGB">
                <feFlood flood-opacity="0" result="BackgroundImageFix"></feFlood>
                <feBlend mode="normal" in="SourceGraphic" in2="BackgroundImageFix" result="shape"></feBlend>
                <feGaussianBlur stdDeviation="0.145833" result="effect1_foregroundBlur_2003_1650"></feGaussianBlur>
            </filter>
            <filter id="filter6_f_2003_1650" x="8.08089" y="10.8454" width="2.08419"
                height="1.86971" filterUnits="userSpaceOnUse" color-interpolation-filters="sRGB">
                <feFlood flood-opacity="0" result="BackgroundImageFix"></feFlood>
                <feBlend mode="normal" in="SourceGraphic" in2="BackgroundImageFix" result="shape"></feBlend>
                <feGaussianBlur stdDeviation="0.145833" result="effect1_foregroundBlur_2003_1650"></feGaussianBlur>
            </filter>
            <filter id="filter7_f_2003_1650" x="6.08866" y="1.34587" width="1.0424" height="1.74418"
                filterUnits="userSpaceOnUse" color-interpolation-filters="sRGB">
                <feFlood flood-opacity="0" result="BackgroundImageFix"></feFlood>
                <feBlend mode="normal" in="SourceGraphic" in2="BackgroundImageFix" result="shape"></feBlend>
                <feGaussianBlur stdDeviation="0.0729167" result="effect1_foregroundBlur_2003_1650"></feGaussianBlur>
            </filter>
            <filter id="filter8_f_2003_1650" x="0.388143" y="0.617391" width="13.2237"
                height="7.4482" filterUnits="userSpaceOnUse" color-interpolation-filters="sRGB">
                <feFlood flood-opacity="0" result="BackgroundImageFix"></feFlood>
                <feBlend mode="normal" in="SourceGraphic" in2="BackgroundImageFix" result="shape"></feBlend>
                <feGaussianBlur stdDeviation="0.583333" result="effect1_foregroundBlur_2003_1650"></feGaussianBlur>
            </filter>
            <filter id="filter9_f_2003_1650" x="2.67289" y="2.36686" width="6.39128" height="4.9976"
                filterUnits="userSpaceOnUse" color-interpolation-filters="sRGB">
                <feFlood flood-opacity="0" result="BackgroundImageFix"></feFlood>
                <feBlend mode="normal" in="SourceGraphic" in2="BackgroundImageFix" result="shape"></feBlend>
                <feGaussianBlur stdDeviation="0.291667" result="effect1_foregroundBlur_2003_1650"></feGaussianBlur>
            </filter>
            <linearGradient id="paint0_linear_2003_1650" x1="7" y1="2.27277" x2="7" y2="13.6159"
                gradientUnits="userSpaceOnUse">
                <stop stop-color="#FFBEEA"></stop>
                <stop offset="1" stop-color="#FF7C44"></stop>
            </linearGradient>
            <radialGradient id="paint1_radial_2003_1650" cx="0" cy="0" r="1"
                gradientUnits="userSpaceOnUse"
                gradientTransform="translate(7.89827 8.03797) rotate(62.1049) scale(4.14419 7.26535)">
                <stop stop-color="#FF000A"></stop>
                <stop offset="1" stop-color="#FF67A3"></stop>
            </radialGradient>
            <linearGradient id="paint2_linear_2003_1650" x1="6.99998" y1="3.60894" x2="6.99998"
                y2="6.89892" gradientUnits="userSpaceOnUse">
                <stop stop-color="white" stop-opacity="0"></stop>
                <stop offset="1" stop-color="white"></stop>
            </linearGradient>
            <linearGradient id="paint3_linear_2003_1650" x1="6.9936" y1="12.0878" x2="6.9936"
                y2="10.7346" gradientUnits="userSpaceOnUse">
                <stop offset="0.484375" stop-color="#BD080F"></stop>
                <stop offset="1" stop-color="#810000" stop-opacity="0"></stop>
            </linearGradient>
            <linearGradient id="paint4_linear_2003_1650" x1="10.0374" y1="8.49881" x2="11.5968"
                y2="9.09603" gradientUnits="userSpaceOnUse">
                <stop stop-color="#FF7277"></stop>
                <stop offset="1" stop-color="#FC000A" stop-opacity="0.04"></stop>
            </linearGradient>
            <radialGradient id="paint5_radial_2003_1650" cx="0" cy="0" r="1"
                gradientUnits="userSpaceOnUse"
                gradientTransform="translate(5.54564 5.47129) rotate(48.1062) scale(1.96315 5.31516)">
                <stop stop-color="#FFF0D9"></stop>
                <stop offset="1" stop-color="#FBEBD4"></stop>
            </radialGradient>
        </defs>
    </symbol>

    <symbol id="ticket" fill="none">
        <path
            d="M17.7492 8.1625C18.0316 8.10505 18.2854 7.95182 18.4678 7.72874C18.6501 7.50566 18.7498 7.22642 18.75 6.93828V5C18.75 4.66848 18.6183 4.35054 18.3839 4.11612C18.1495 3.8817 17.8315 3.75 17.5 3.75H2.5C2.16848 3.75 1.85054 3.8817 1.61612 4.11612C1.3817 4.35054 1.25 4.66848 1.25 5V6.93828C1.25016 7.22642 1.34986 7.50566 1.53223 7.72874C1.71459 7.95182 1.96843 8.10505 2.25078 8.1625C2.67298 8.25005 3.05209 8.48044 3.32427 8.81485C3.59644 9.14926 3.74505 9.56726 3.74505 9.99844C3.74505 10.4296 3.59644 10.8476 3.32427 11.182C3.05209 11.5164 2.67298 11.7468 2.25078 11.8344C1.9679 11.8919 1.71366 12.0456 1.53124 12.2693C1.34881 12.4931 1.24944 12.773 1.25 13.0617V15C1.25 15.3315 1.3817 15.6495 1.61612 15.8839C1.85054 16.1183 2.16848 16.25 2.5 16.25H17.5C17.8315 16.25 18.1495 16.1183 18.3839 15.8839C18.6183 15.6495 18.75 15.3315 18.75 15V13.0617C18.7498 12.7736 18.6501 12.4943 18.4678 12.2713C18.2854 12.0482 18.0316 11.8949 17.7492 11.8375C17.327 11.7499 16.9479 11.5196 16.6757 11.1851C16.4036 10.8507 16.255 10.4327 16.255 10.0016C16.255 9.57039 16.4036 9.15239 16.6757 8.81798C16.9479 8.48357 17.327 8.25318 17.7492 8.16562V8.1625ZM2.5 13.0625C3.20601 12.9187 3.84064 12.5353 4.29644 11.9773C4.75224 11.4193 5.00121 10.7209 5.00121 10.0004C5.00121 9.27988 4.75224 8.5815 4.29644 8.02349C3.84064 7.46547 3.20601 7.0821 2.5 6.93828V5H6.875V15H2.5V13.0625Z"
            fill="currentColor"></path>
    </symbol>

    <symbol id="calendar" fill="none">
        <path
            d="M16.25 2.5H14.375V1.875C14.375 1.70924 14.3092 1.55027 14.1919 1.43306C14.0747 1.31585 13.9158 1.25 13.75 1.25C13.5842 1.25 13.4253 1.31585 13.3081 1.43306C13.1908 1.55027 13.125 1.70924 13.125 1.875V2.5H6.875V1.875C6.875 1.70924 6.80915 1.55027 6.69194 1.43306C6.57473 1.31585 6.41576 1.25 6.25 1.25C6.08424 1.25 5.92527 1.31585 5.80806 1.43306C5.69085 1.55027 5.625 1.70924 5.625 1.875V2.5H3.75C3.41848 2.5 3.10054 2.6317 2.86612 2.86612C2.6317 3.10054 2.5 3.41848 2.5 3.75V16.25C2.5 16.5815 2.6317 16.8995 2.86612 17.1339C3.10054 17.3683 3.41848 17.5 3.75 17.5H16.25C16.5815 17.5 16.8995 17.3683 17.1339 17.1339C17.3683 16.8995 17.5 16.5815 17.5 16.25V3.75C17.5 3.41848 17.3683 3.10054 17.1339 2.86612C16.8995 2.6317 16.5815 2.5 16.25 2.5ZM16.25 6.25H3.75V3.75H5.625V4.375C5.625 4.54076 5.69085 4.69973 5.80806 4.81694C5.92527 4.93415 6.08424 5 6.25 5C6.41576 5 6.57473 4.93415 6.69194 4.81694C6.80915 4.69973 6.875 4.54076 6.875 4.375V3.75H13.125V4.375C13.125 4.54076 13.1908 4.69973 13.3081 4.81694C13.4253 4.93415 13.5842 5 13.75 5C13.9158 5 14.0747 4.93415 14.1919 4.81694C14.3092 4.69973 14.375 4.54076 14.375 4.375V3.75H16.25V6.25Z"
            fill="currentColor"></path>
    </symbol>

    <symbol id="clock" fill="none">
        <path
            d="M10 1.875C8.39303 1.875 6.82214 2.35152 5.486 3.24431C4.14985 4.1371 3.10844 5.40605 2.49348 6.8907C1.87852 8.37535 1.71762 10.009 2.03112 11.5851C2.34463 13.1612 3.11846 14.6089 4.25476 15.7452C5.39106 16.8815 6.8388 17.6554 8.4149 17.9689C9.99099 18.2824 11.6247 18.1215 13.1093 17.5065C14.594 16.8916 15.8629 15.8502 16.7557 14.514C17.6485 13.1779 18.125 11.607 18.125 10C18.1227 7.84581 17.266 5.78051 15.7427 4.25727C14.2195 2.73403 12.1542 1.87727 10 1.875ZM14.375 10.625H10C9.83424 10.625 9.67527 10.5592 9.55806 10.4419C9.44085 10.3247 9.375 10.1658 9.375 10V5.625C9.375 5.45924 9.44085 5.30027 9.55806 5.18306C9.67527 5.06585 9.83424 5 10 5C10.1658 5 10.3247 5.06585 10.4419 5.18306C10.5592 5.30027 10.625 5.45924 10.625 5.625V9.375H14.375C14.5408 9.375 14.6997 9.44085 14.8169 9.55806C14.9342 9.67527 15 9.83424 15 10C15 10.1658 14.9342 10.3247 14.8169 10.4419C14.6997 10.5592 14.5408 10.625 14.375 10.625Z"
            fill="currentColor"></path>
    </symbol>

    <symbol id="users" fill="none">
        <path
            d="M12.8492 15.2835C12.9107 15.3778 12.9456 15.487 12.9502 15.5995C12.9548 15.712 12.9289 15.8236 12.8753 15.9226C12.8217 16.0216 12.7423 16.1043 12.6456 16.1619C12.5489 16.2195 12.4384 16.2499 12.3258 16.2499H0.79924C0.686659 16.2499 0.576171 16.2195 0.479451 16.1619C0.382731 16.1043 0.303369 16.0216 0.249751 15.9226C0.196133 15.8236 0.17025 15.712 0.174835 15.5995C0.179421 15.487 0.214305 15.3778 0.275803 15.2835C1.15557 13.9293 2.44962 12.8959 3.96487 12.3374C3.12721 11.7798 2.49125 10.9674 2.15104 10.0203C1.81082 9.07325 1.78441 8.04185 2.07572 7.07862C2.36702 6.1154 2.96057 5.27149 3.76859 4.67169C4.57662 4.07189 5.55621 3.74805 6.56252 3.74805C7.56883 3.74805 8.54843 4.07189 9.35645 4.67169C10.1645 5.27149 10.758 6.1154 11.0493 7.07862C11.3406 8.04185 11.3142 9.07325 10.974 10.0203C10.6338 10.9674 9.99784 11.7798 9.16018 12.3374C10.6754 12.8959 11.9695 13.9293 12.8492 15.2835ZM19.7172 15.2718C18.8372 13.9233 17.546 12.8943 16.0352 12.3374C17.0241 11.6713 17.722 10.6534 17.9868 9.49084C18.2516 8.3283 18.0635 7.10853 17.4607 6.07981C16.8578 5.0511 15.8857 4.29076 14.742 3.95357C13.5984 3.61637 12.3692 3.72766 11.3047 4.26479C11.264 4.28581 11.2284 4.31552 11.2005 4.35182C11.1725 4.38811 11.1529 4.43011 11.143 4.47483C11.1331 4.51956 11.1331 4.56592 11.1431 4.61062C11.1531 4.65533 11.1728 4.69729 11.2008 4.73354C11.9923 5.72089 12.4469 6.93576 12.498 8.20019C12.549 9.46463 12.1938 10.7122 11.4844 11.7601C11.4385 11.8286 11.4216 11.9124 11.4373 11.9933C11.4529 12.0742 11.4999 12.1457 11.568 12.1921C12.4929 12.8377 13.2847 13.6554 13.9 14.6007C14.1482 14.9808 14.2495 15.4381 14.1852 15.8874C14.1779 15.9321 14.1805 15.9779 14.1927 16.0215C14.2048 16.0651 14.2263 16.1055 14.2557 16.14C14.285 16.1745 14.3215 16.2022 14.3626 16.2212C14.4038 16.2401 14.4485 16.25 14.4938 16.2499H19.2047C19.3423 16.25 19.4761 16.2046 19.5853 16.1208C19.6945 16.0371 19.773 15.9196 19.8086 15.7867C19.8303 15.6992 19.8334 15.6082 19.8177 15.5195C19.8019 15.4308 19.7677 15.3464 19.7172 15.2718Z"
            fill="currentColor"></path>
    </symbol>

    <symbol id="globe" fill="none">
        <path
            d="M10 1.875C8.39303 1.875 6.82214 2.35152 5.486 3.24431C4.14985 4.1371 3.10844 5.40605 2.49348 6.8907C1.87852 8.37535 1.71762 10.009 2.03112 11.5851C2.34463 13.1612 3.11846 14.6089 4.25476 15.7452C5.39106 16.8815 6.8388 17.6554 8.41489 17.9689C9.99099 18.2824 11.6247 18.1215 13.1093 17.5065C14.594 16.8916 15.8629 15.8502 16.7557 14.514C17.6485 13.1779 18.125 11.607 18.125 10C18.1227 7.84581 17.266 5.78051 15.7427 4.25727C14.2195 2.73403 12.1542 1.87727 10 1.875ZM16.875 10C16.8757 10.882 16.7059 11.7558 16.375 12.5734L12.8828 10.4258C12.7343 10.3342 12.5682 10.2748 12.3953 10.2516L10.6125 10.0109C10.3668 9.9789 10.1172 10.0201 9.89483 10.1293C9.67247 10.2386 9.48729 10.411 9.3625 10.625H8.68125L8.38438 10.0109C8.30231 9.83995 8.18219 9.69002 8.03324 9.57261C7.88428 9.45521 7.71043 9.37345 7.525 9.33359L6.9 9.19844L7.51094 8.125H8.81641C9.02766 8.12459 9.23538 8.07084 9.42032 7.96875L10.3773 7.44062C10.4614 7.39376 10.54 7.33768 10.6117 7.27344L12.7141 5.37188C12.9248 5.18298 13.0649 4.92788 13.1112 4.64865C13.1575 4.36942 13.1073 4.08276 12.9688 3.83594L12.9406 3.78516C14.117 4.34297 15.1111 5.22296 15.8075 6.32301C16.5039 7.42306 16.8741 8.69805 16.875 10ZM3.125 10C3.12396 8.97814 3.35194 7.96904 3.79219 7.04687L4.67813 9.41172C4.75196 9.60752 4.87376 9.78165 5.03237 9.91815C5.19098 10.0546 5.38132 10.1491 5.58594 10.193L7.26016 10.5531L7.55782 11.1719C7.66112 11.3823 7.82121 11.5597 8.02001 11.6839C8.2188 11.8082 8.44839 11.8744 8.68282 11.875H8.79844L8.2336 13.143C8.13407 13.3662 8.1022 13.6138 8.14191 13.855C8.18162 14.0962 8.29118 14.3204 8.45703 14.5L8.46797 14.5109L10 16.0891L9.84844 16.8703C8.05299 16.8285 6.34497 16.0867 5.08885 14.8031C3.83273 13.5196 3.12798 11.7959 3.125 10Z"
            fill="currentColor"></path>
    </symbol>

    <symbol id="plus" fill="none">
        <path
            d="M14.25 8.00012C14.25 8.19903 14.171 8.3898 14.0303 8.53045C13.8897 8.6711 13.6989 8.75012 13.5 8.75012H8.75V13.5001C8.75 13.699 8.67098 13.8898 8.53033 14.0305C8.38968 14.1711 8.19891 14.2501 8 14.2501C7.80109 14.2501 7.61032 14.1711 7.46967 14.0305C7.32902 13.8898 7.25 13.699 7.25 13.5001V8.75012H2.5C2.30109 8.75012 2.11032 8.6711 1.96967 8.53045C1.82902 8.3898 1.75 8.19903 1.75 8.00012C1.75 7.80121 1.82902 7.61044 1.96967 7.46979C2.11032 7.32914 2.30109 7.25012 2.5 7.25012H7.25V2.50012C7.25 2.30121 7.32902 2.11044 7.46967 1.96979C7.61032 1.82914 7.80109 1.75012 8 1.75012C8.19891 1.75012 8.38968 1.82914 8.53033 1.96979C8.67098 2.11044 8.75 2.30121 8.75 2.50012V7.25012H13.5C13.6989 7.25012 13.8897 7.32914 14.0303 7.46979C14.171 7.61044 14.25 7.80121 14.25 8.00012Z"
            fill="currentColor"></path>
    </symbol>

    <symbol id="piggy-bank" fill="none">
        <path
            d="M12.3594 4.81702C12.3375 4.76233 12.3145 4.70764 12.291 4.65295C11.9382 3.83922 11.3672 3.13893 10.6411 2.62952H11.8125C11.9285 2.62952 12.0398 2.58342 12.1219 2.50138C12.2039 2.41933 12.25 2.30805 12.25 2.19202C12.25 2.07598 12.2039 1.9647 12.1219 1.88266C12.0398 1.80061 11.9285 1.75452 11.8125 1.75452H6.125C4.91537 1.75605 3.75055 2.21245 2.86184 3.03307C1.97314 3.85369 1.42555 4.97852 1.32781 6.1842C0.949901 6.27815 0.614119 6.49545 0.373618 6.80172C0.133118 7.10799 0.00164146 7.48573 0 7.87514C0 7.99117 0.0460936 8.10245 0.128141 8.1845C0.210188 8.26655 0.321468 8.31264 0.4375 8.31264C0.553532 8.31264 0.664812 8.26655 0.746859 8.1845C0.828906 8.10245 0.875 7.99117 0.875 7.87514C0.875102 7.7156 0.91882 7.55913 1.00142 7.42264C1.08403 7.28616 1.20238 7.17485 1.34367 7.10077C1.45257 8.08233 1.86186 9.00633 2.51562 9.74655L3.2025 11.6694C3.26322 11.8394 3.37508 11.9866 3.52274 12.0905C3.67039 12.1945 3.8466 12.2503 4.02719 12.2501H4.72281C4.90331 12.2502 5.0794 12.1944 5.22694 12.0904C5.37448 11.9864 5.48626 11.8393 5.54695 11.6694L5.65195 11.3751H8.78555L8.89055 11.6694C8.95124 11.8393 9.06302 11.9864 9.21056 12.0904C9.3581 12.1944 9.53419 12.2502 9.71469 12.2501H10.4103C10.5908 12.2502 10.7669 12.1944 10.9144 12.0904C11.062 11.9864 11.1738 11.8393 11.2345 11.6694L12.1209 9.18764H12.25C12.5981 9.18764 12.9319 9.04936 13.1781 8.80322C13.4242 8.55708 13.5625 8.22324 13.5625 7.87514V6.12514C13.5625 5.79595 13.4389 5.47875 13.216 5.23645C12.9932 4.99416 12.6874 4.84445 12.3594 4.81702ZM8.3125 3.93764H6.125C6.00897 3.93764 5.89769 3.89155 5.81564 3.8095C5.73359 3.72745 5.6875 3.61617 5.6875 3.50014C5.6875 3.38411 5.73359 3.27283 5.81564 3.19078C5.89769 3.10874 6.00897 3.06264 6.125 3.06264H8.3125C8.42853 3.06264 8.53981 3.10874 8.62186 3.19078C8.70391 3.27283 8.75 3.38411 8.75 3.50014C8.75 3.61617 8.70391 3.72745 8.62186 3.8095C8.53981 3.89155 8.42853 3.93764 8.3125 3.93764ZM9.84375 7.00014C9.71396 7.00014 9.58708 6.96165 9.47916 6.88954C9.37124 6.81743 9.28712 6.71494 9.23745 6.59503C9.18778 6.47511 9.17479 6.34316 9.20011 6.21586C9.22543 6.08856 9.28793 5.97163 9.37971 5.87985C9.47149 5.78807 9.58842 5.72557 9.71572 5.70025C9.84302 5.67493 9.97497 5.68793 10.0949 5.7376C10.2148 5.78727 10.3173 5.87138 10.3894 5.9793C10.4615 6.08722 10.5 6.2141 10.5 6.34389C10.5 6.51794 10.4309 6.68486 10.3078 6.80793C10.1847 6.931 10.0178 7.00014 9.84375 7.00014Z"
            fill="currentColor"></path>
    </symbol>

    <symbol id="card" viewBox="0 0 35 20" fill="none">
        <g clip-path="url(#clip0_2008_1310)">
            <rect y="0.000244141" width="35" height="20" rx="3.75" fill="white"></rect>
            <path
                d="M25 3.75024H10C9.66848 3.75024 9.35054 3.88194 9.11612 4.11636C8.8817 4.35078 8.75 4.66872 8.75 5.00024V15.0002C8.75 15.3318 8.8817 15.6497 9.11612 15.8841C9.35054 16.1185 9.66848 16.2502 10 16.2502H25C25.3315 16.2502 25.6495 16.1185 25.8839 15.8841C26.1183 15.6497 26.25 15.3318 26.25 15.0002V5.00024C26.25 4.66872 26.1183 4.35078 25.8839 4.11636C25.6495 3.88194 25.3315 3.75024 25 3.75024ZM25 5.00024V6.87524H10V5.00024H25ZM25 15.0002H10V8.12524H25V15.0002ZM23.75 13.1252C23.75 13.291 23.6842 13.45 23.5669 13.5672C23.4497 13.6844 23.2908 13.7502 23.125 13.7502H20.625C20.4592 13.7502 20.3003 13.6844 20.1831 13.5672C20.0658 13.45 20 13.291 20 13.1252C20 12.9595 20.0658 12.8005 20.1831 12.6833C20.3003 12.5661 20.4592 12.5002 20.625 12.5002H23.125C23.2908 12.5002 23.4497 12.5661 23.5669 12.6833C23.6842 12.8005 23.75 12.9595 23.75 13.1252ZM18.75 13.1252C18.75 13.291 18.6842 13.45 18.5669 13.5672C18.4497 13.6844 18.2908 13.7502 18.125 13.7502H16.875C16.7092 13.7502 16.5503 13.6844 16.4331 13.5672C16.3158 13.45 16.25 13.291 16.25 13.1252C16.25 12.9595 16.3158 12.8005 16.4331 12.6833C16.5503 12.5661 16.7092 12.5002 16.875 12.5002H18.125C18.2908 12.5002 18.4497 12.5661 18.5669 12.6833C18.6842 12.8005 18.75 12.9595 18.75 13.1252Z"
                fill="#60646C"></path>
        </g>
        <rect x="0.3125" y="0.312744" width="34.375" height="19.375" rx="3.4375" stroke="#DDDDE3"
            stroke-width="0.625"></rect>
        <defs>
            <clipPath id="clip0_2008_1310">
                <rect y="0.000244141" width="35" height="20" rx="3.75" fill="white"></rect>
            </clipPath>
        </defs>
    </symbol>

    <symbol id="visa" viewBox="0 0 35 20" fill="none">
        <path
            d="M0.3125 4.00024C0.3125 1.96369 1.96345 0.312744 4 0.312744H31C33.0366 0.312744 34.6875 1.96369 34.6875 4.00024V16.0002C34.6875 18.0368 33.0366 19.6877 31 19.6877H4C1.96345 19.6877 0.3125 18.0368 0.3125 16.0002V4.00024Z"
            fill="white"></path>
        <path
            d="M0.3125 4.00024C0.3125 1.96369 1.96345 0.312744 4 0.312744H31C33.0366 0.312744 34.6875 1.96369 34.6875 4.00024V16.0002C34.6875 18.0368 33.0366 19.6877 31 19.6877H4C1.96345 19.6877 0.3125 18.0368 0.3125 16.0002V4.00024Z"
            stroke="#DDDDE3" stroke-width="0.625"></path>
        <path
            d="M21.5513 5.62524C22.3739 5.62524 23.0391 5.81447 23.4585 5.98586L23.1693 7.8149L22.977 7.72496C22.5922 7.55369 22.0843 7.38255 21.393 7.40063C20.5535 7.40063 20.1769 7.76987 20.1682 8.13036C20.1682 8.5269 20.6237 8.78823 21.3674 9.17578C22.5926 9.77952 23.1608 10.5183 23.1524 11.4826C23.1351 13.2398 21.6826 14.3752 19.4513 14.3752C18.4974 14.3661 17.5785 14.1585 17.0798 13.9245L17.3774 12.0231L17.6574 12.1584C18.3487 12.4741 18.8035 12.609 19.6525 12.609C20.2647 12.609 20.9211 12.3474 20.9295 11.7799C20.9295 11.4105 20.6499 11.1399 19.8272 10.7254C19.0223 10.3198 17.9461 9.64406 17.9635 8.4275C17.9726 6.77858 19.4514 5.62524 21.5513 5.62524Z"
            fill="#00579F"></path>
        <path d="M13.6236 14.249H15.75L17.0799 5.77879H14.9536L13.6236 14.249Z" fill="#00579F"></path>
        <path fill-rule="evenodd" clip-rule="evenodd"
            d="M28.9095 5.77879H27.2647C26.7575 5.77879 26.3722 5.93184 26.1533 6.48156L22.9948 14.2489H25.226C25.226 14.2489 25.5933 13.2035 25.6723 12.9783H28.4024C28.4635 13.2757 28.6561 14.2489 28.6561 14.2489H30.625L28.9095 5.77879ZM26.2847 11.2483C26.4598 10.7617 27.1337 8.87841 27.1337 8.87841C27.1301 8.88571 27.1579 8.80627 27.1993 8.68819C27.2603 8.51392 27.3509 8.25544 27.4134 8.06748L27.5621 8.79733C27.5621 8.79733 27.9647 10.8248 28.0522 11.2483H26.2847Z"
            fill="#00579F"></path>
        <path
            d="M9.76497 11.5547L11.8475 5.77879H14.096L10.7536 14.24H8.50495L6.59747 6.83283C7.94494 7.56304 9.1524 9.03159 9.53741 10.3833L9.76497 11.5547Z"
            fill="#00579F"></path>
        <path
            d="M7.83123 5.77878H4.41L4.375 5.94992C7.04377 6.65282 8.81124 8.34713 9.53742 10.3836L8.79369 6.49078C8.67124 5.9498 8.29496 5.79662 7.83123 5.77878Z"
            fill="#FAA61A"></path>
    </symbol>

    <symbol id="mastercard" viewBox="0 0 35 20" fill="none">
        <path
            d="M0.3125 4.00024C0.3125 1.96369 1.96345 0.312744 4 0.312744H31C33.0366 0.312744 34.6875 1.96369 34.6875 4.00024V16.0002C34.6875 18.0368 33.0366 19.6877 31 19.6877H4C1.96345 19.6877 0.3125 18.0368 0.3125 16.0002V4.00024Z"
            fill="white"></path>
        <path
            d="M0.3125 4.00024C0.3125 1.96369 1.96345 0.312744 4 0.312744H31C33.0366 0.312744 34.6875 1.96369 34.6875 4.00024V16.0002C34.6875 18.0368 33.0366 19.6877 31 19.6877H4C1.96345 19.6877 0.3125 18.0368 0.3125 16.0002V4.00024Z"
            stroke="#DDDDE3" stroke-width="0.625"></path>
        <path
            d="M17.5104 14.2815C16.5163 15.1194 15.2268 15.6252 13.8177 15.6252C10.6737 15.6252 8.125 13.1068 8.125 10.0002C8.125 6.89364 10.6737 4.37524 13.8177 4.37524C15.2268 4.37524 16.5163 4.88108 17.5104 5.719C18.5044 4.88108 19.7939 4.37524 21.203 4.37524C24.347 4.37524 26.8957 6.89364 26.8957 10.0002C26.8957 13.1068 24.347 15.6252 21.203 15.6252C19.7939 15.6252 18.5044 15.1194 17.5104 14.2815Z"
            fill="#ED0006"></path>
        <path
            d="M17.5104 14.2815C18.7344 13.2497 19.5105 11.7145 19.5105 10.0002C19.5105 8.28594 18.7344 6.75075 17.5104 5.71903C18.5045 4.88109 19.794 4.37524 21.203 4.37524C24.347 4.37524 26.8958 6.89364 26.8958 10.0002C26.8958 13.1068 24.347 15.6252 21.203 15.6252C19.794 15.6252 18.5045 15.1194 17.5104 14.2815Z"
            fill="#F9A000"></path>
        <path
            d="M17.5104 14.2815C18.7343 13.2498 19.5105 11.7146 19.5105 10.0003C19.5105 8.28595 18.7343 6.75075 17.5104 5.71902C16.2864 6.75075 15.5102 8.28595 15.5102 10.0003C15.5102 11.7146 16.2864 13.2498 17.5104 14.2815Z"
            fill="#FF5E00"></path>
    </symbol>

    <symbol id="diners-club" viewBox="0 0 35 20" fill="none">
        <path
            d="M0.3125 4.00024C0.3125 1.96369 1.96345 0.312744 4 0.312744H31C33.0366 0.312744 34.6875 1.96369 34.6875 4.00024V16.0002C34.6875 18.0368 33.0366 19.6877 31 19.6877H4C1.96345 19.6877 0.3125 18.0368 0.3125 16.0002V4.00024Z"
            fill="white"></path>
        <path
            d="M0.3125 4.00024C0.3125 1.96369 1.96345 0.312744 4 0.312744H31C33.0366 0.312744 34.6875 1.96369 34.6875 4.00024V16.0002C34.6875 18.0368 33.0366 19.6877 31 19.6877H4C1.96345 19.6877 0.3125 18.0368 0.3125 16.0002V4.00024Z"
            stroke="#DDDDE3" stroke-width="0.625"></path>
        <path
            d="M17.0994 13.4787V6.57691C19.0099 7.06601 20.2108 8.96807 19.7195 10.8701C19.392 12.1744 18.4095 13.1526 17.0994 13.4787Z"
            fill="#0079BE"></path>
        <path
            d="M12.8962 9.1311C12.405 11.0332 13.5513 12.9896 15.4618 13.4787V6.57691C14.2063 6.90298 13.2238 7.88118 12.8962 9.1311Z"
            fill="#0079BE"></path>
        <path fill-rule="evenodd" clip-rule="evenodd"
            d="M16.1169 16.2502H18.3549C21.8483 16.2502 24.6322 13.4787 24.7414 10.055V10.0006C24.6868 6.52258 21.8483 3.69667 18.3549 3.75102H15.8439C12.5142 3.8597 9.89412 6.68562 10.0033 10.055C10.0033 13.4243 12.7326 16.1959 16.1169 16.2502ZM11.0951 10.0006C11.0951 7.17469 13.4422 4.83788 16.2807 4.83788C19.1191 4.83788 21.4663 7.17469 21.4663 10.0006C21.4663 12.8265 19.1191 15.1633 16.2807 15.1633C13.4422 15.1633 11.0951 12.8265 11.0951 10.0006Z"
            fill="#0079BE"></path>
    </symbol>

    <symbol id="apple-pay" viewBox="0 0 35 20" fill="none">
        <rect y="0.000244141" width="35" height="20" rx="6" fill="#E4E4E9"></rect>
        <path fill-rule="evenodd" clip-rule="evenodd"
            d="M9.56809 6.37927C9.27509 6.74056 8.80628 7.02553 8.33748 6.98482C8.27888 6.49631 8.5084 5.97726 8.77698 5.65668C9.06999 5.28521 9.58274 5.0206 9.99783 5.00024C10.0467 5.50911 9.85621 6.0078 9.56809 6.37927ZM9.99283 7.08149C9.57982 7.05672 9.20297 7.21091 8.89857 7.33546C8.70269 7.41562 8.53681 7.48349 8.41061 7.48349C8.26899 7.48349 8.09627 7.41199 7.90234 7.33171C7.64822 7.22651 7.3577 7.10625 7.05304 7.11202C6.35471 7.12219 5.70522 7.53437 5.34874 8.19081C4.61623 9.50368 5.15829 11.4475 5.86638 12.5162C6.2131 13.0454 6.62818 13.6255 7.17512 13.6051C7.41574 13.5957 7.58883 13.5191 7.76796 13.4399C7.97418 13.3487 8.18842 13.254 8.52293 13.254C8.84585 13.254 9.05071 13.3463 9.24737 13.4348C9.43436 13.519 9.61393 13.5999 9.88051 13.595C10.447 13.5848 10.8035 13.0657 11.1502 12.5365C11.5244 11.9685 11.6888 11.4142 11.7137 11.3301L11.7167 11.3203C11.7167 11.3203 11.7114 11.3175 11.7033 11.3136C11.5782 11.2539 10.6222 10.7979 10.613 9.57492C10.6038 8.54843 11.3713 8.02834 11.4921 7.94647C11.4995 7.94149 11.5044 7.93813 11.5067 7.93638C11.0183 7.18326 10.2565 7.10184 9.99283 7.08149ZM13.9143 13.539V5.60578H16.771C18.2458 5.60578 19.2762 6.66422 19.2762 8.21116C19.2762 9.75811 18.2263 10.8267 16.732 10.8267H15.096V13.539H13.9143ZM15.0958 6.64388H16.4583C17.4838 6.64388 18.0698 7.21381 18.0698 8.21627C18.0698 9.21874 17.4838 9.79375 16.4534 9.79375H15.0958V6.64388ZM23.1779 12.5874C22.8654 13.2082 22.1768 13.6 21.4345 13.6C20.3358 13.6 19.5691 12.9182 19.5691 11.8903C19.5691 10.8725 20.3114 10.2873 21.6836 10.2008L23.1584 10.1092V9.67162C23.1584 9.02536 22.7531 8.67424 22.0303 8.67424C21.4345 8.67424 20.9999 8.99483 20.912 9.48334H19.8475C19.8816 8.45543 20.8095 7.7074 22.0645 7.7074C23.4172 7.7074 24.2962 8.44525 24.2962 9.5902V13.539H23.2023V12.5874H23.1779ZM21.752 12.6586C21.1221 12.6586 20.7216 12.3432 20.7216 11.8597C20.7216 11.361 21.1074 11.071 21.8448 11.0252L23.1584 10.9387V11.3865C23.1584 12.1294 22.5529 12.6586 21.752 12.6586ZM27.9246 13.8494C27.4509 15.2386 26.9088 15.6966 25.7563 15.6966C25.6684 15.6966 25.3754 15.6864 25.3071 15.666V14.7145C25.3803 14.7246 25.561 14.7348 25.6538 14.7348C26.1763 14.7348 26.4693 14.5058 26.65 13.9105L26.7574 13.5593L24.7553 7.78373H25.9907L27.3825 12.4704H27.4069L28.7987 7.78373H30L27.9246 13.8494Z"
            fill="#8B8D98"></path>
    </symbol>

    <symbol id="google-pay" viewBox="0 0 35 20" fill="none">
        <rect y="0.000244141" width="35" height="20" rx="6" fill="#E4E4E9"></rect>
        <path
            d="M10.8396 7.33757C10.4059 6.91535 9.82557 6.68343 9.22184 6.69533C8.11987 6.69533 7.18789 7.45056 6.85378 8.46746L6.85241 8.46637C6.67813 9.00021 6.67844 9.57516 6.85378 10.1028C7.18789 11.1138 8.11987 11.869 9.22184 11.869C9.7904 11.869 10.2767 11.7203 10.6577 11.4587C11.1032 11.1613 11.408 10.6856 11.5018 10.1563H9.22167V8.50908H13.2016C13.2485 8.79452 13.272 9.08591 13.272 9.3773C13.272 10.6856 12.8148 11.7857 12.0176 12.5291C11.3201 13.1832 10.359 13.5638 9.22184 13.5638C7.6275 13.5638 6.16798 12.654 5.45288 11.2089V11.203C4.84904 9.99577 4.84904 8.56855 5.45287 7.36136C6.16798 5.9163 7.6275 5.0005 9.22184 5.0005C10.271 4.98861 11.2792 5.38704 12.0471 6.11254L10.8396 7.33757Z"
            fill="#8B8D98"></path>
        <path fill-rule="evenodd" clip-rule="evenodd"
            d="M16.53 13.0524V10.0314H18.0892C18.7281 10.0314 19.2674 9.81734 19.707 9.39512L19.8125 9.28808C20.6155 8.41391 20.5628 7.05211 19.707 6.24335C19.2791 5.81519 18.6929 5.58326 18.0892 5.59516H15.5863V13.0524H16.53ZM16.53 9.11558V6.51091H18.1129C18.4529 6.51091 18.7754 6.64174 19.0157 6.87961C19.5258 7.37913 19.5375 8.21168 19.045 8.72904C18.8047 8.98475 18.4647 9.12748 18.1129 9.11558H16.53Z"
            fill="#8B8D98"></path>
        <path fill-rule="evenodd" clip-rule="evenodd"
            d="M24.2146 8.34847C23.8101 7.97382 23.2592 7.78353 22.5616 7.78353C21.6648 7.78353 20.9908 8.11655 20.5453 8.77664L21.3776 9.3059C21.6824 8.85394 22.0986 8.62797 22.6261 8.62797C22.9602 8.62797 23.2826 8.75285 23.5347 8.97882C23.7808 9.19291 23.9215 9.50214 23.9215 9.82921V10.0492C23.5581 9.84705 23.1009 9.74001 22.5382 9.74001C21.8817 9.74001 21.3542 9.89462 20.9614 10.2098C20.5687 10.525 20.3694 10.9412 20.3694 11.4705C20.3577 11.9522 20.5629 12.4101 20.9263 12.7193C21.2956 13.0523 21.7645 13.2189 22.3155 13.2189C22.9661 13.2189 23.4819 12.9275 23.8746 12.3447H23.9157V13.0523H24.8183V9.90652C24.8183 9.24643 24.619 8.72311 24.2146 8.34847ZM21.6533 12.1128C21.4598 11.9701 21.3426 11.7381 21.3426 11.4884C21.3426 11.2089 21.4716 10.9769 21.7236 10.7926C21.9816 10.6083 22.304 10.5131 22.6851 10.5131C23.2127 10.5072 23.6231 10.6261 23.9162 10.864C23.9162 11.2683 23.7579 11.6192 23.4472 11.9165C23.1658 12.202 22.7847 12.3625 22.3861 12.3625C22.1223 12.3685 21.8643 12.2793 21.6533 12.1128Z"
            fill="#8B8D98"></path>
        <path
            d="M30 7.95003L26.8465 15.2943H25.8735L27.0458 12.7253L24.9767 7.95003H26.0024L27.4971 11.6132H27.5147L28.9742 7.95003H30Z"
            fill="#8B8D98"></path>
    </symbol>

    <symbol id="cross" fill="none">
        <path
            d="M19.546 17.9543C19.7573 18.1656 19.876 18.4523 19.876 18.7512C19.876 19.05 19.7573 19.3367 19.546 19.548C19.3346 19.7594 19.048 19.8781 18.7491 19.8781C18.4502 19.8781 18.1636 19.7594 17.9522 19.548L12 13.594L6.04596 19.5462C5.83461 19.7575 5.54797 19.8762 5.24908 19.8762C4.9502 19.8762 4.66355 19.7575 4.45221 19.5462C4.24086 19.3348 4.12213 19.0482 4.12213 18.7493C4.12213 18.4504 4.24086 18.1638 4.45221 17.9524L10.4063 12.0002L4.45408 6.04616C4.24274 5.83482 4.12401 5.54817 4.12401 5.24929C4.12401 4.9504 4.24274 4.66376 4.45408 4.45241C4.66543 4.24107 4.95207 4.12234 5.25096 4.12234C5.54984 4.12234 5.83649 4.24107 6.04783 4.45241L12 10.4065L17.9541 4.45148C18.1654 4.24013 18.4521 4.1214 18.751 4.1214C19.0498 4.1214 19.3365 4.24013 19.5478 4.45148C19.7592 4.66282 19.8779 4.94946 19.8779 5.24835C19.8779 5.54724 19.7592 5.83388 19.5478 6.04523L13.5938 12.0002L19.546 17.9543Z"
            fill="currentColor"></path>
    </symbol>

    <symbol id="support-illustration" viewBox="0 0 157.1428680419922 100" fill="none">
        <path d="M105.765 62.2215L108.743 61.6963L110.166 67.5876L106.443 68.2441L105.765 62.2215Z"
            fill="black"></path>
        <rect x="73.3073" y="74.0867" width="71.0741" height="27.2199" rx="10.7143"
            transform="rotate(-10 73.3073 74.0867)" fill="black"></rect>
        <path
            d="M101.686 69.0829L108.305 67.9159L105.326 72.1701C104.413 73.4732 102.381 73.0226 102.104 71.4559L101.686 69.0829Z"
            fill="white"></path>
        <path
            d="M114.923 66.7489L108.305 67.9159L112.559 70.8947C113.862 71.8072 115.618 70.6886 115.342 69.1219L114.923 66.7489Z"
            fill="white"></path>
        <path
            d="M130.356 82.4227C130.564 82.3861 130.763 82.3295 130.951 82.2535C131.144 82.1767 131.333 82.089 131.517 81.9922L131.767 83.4111C131.578 83.5383 131.339 83.658 131.044 83.7711C130.755 83.8864 130.432 83.9762 130.074 84.0393C129.659 84.1126 129.271 84.1117 128.915 84.0375C128.562 83.958 128.261 83.7685 128.011 83.4696C127.764 83.1651 127.587 82.713 127.482 82.1132L126.887 78.7428L126.007 79.0762L125.754 77.6446L126.637 77.3223L126.373 75.8251L128.218 75.1535L128.482 76.6523L130.376 75.9621L130.628 77.3938L128.734 78.084L129.385 81.7759C129.432 82.043 129.543 82.2297 129.716 82.336C129.893 82.4385 130.107 82.4667 130.356 82.4227Z"
            fill="white" stroke="white" stroke-width="0.892857" stroke-linejoin="round"></path>
        <ellipse cx="80.8025" cy="40.1349" rx="12.0977" ry="15.1222"
            transform="rotate(-10 80.8025 40.1349)" fill="black"></ellipse>
        <path
            d="M126.186 24.4548C123.648 10.0613 111.414 0.187631 98.8592 2.40132C86.3048 4.615 78.1849 18.0778 80.7228 32.4713"
            stroke="black" stroke-width="3.57143"></path>
        <circle cx="102.724" cy="36.2695" r="26.4638" transform="rotate(-10 102.724 36.2695)"
            fill="#08E8DE"></circle>
        <ellipse cx="128.786" cy="31.6742" rx="12.0977" ry="15.1222"
            transform="rotate(-10 128.786 31.6742)" fill="black"></ellipse>
        <path
            d="M109.391 45.3146C108.238 42.9508 105.387 41.9692 103.023 43.1221C100.659 44.275 99.6777 47.1258 100.831 49.4896C101.984 51.8533 104.834 52.8349 107.198 51.6821C109.562 50.5292 110.543 47.6784 109.391 45.3146ZM122.301 38.0243L104.719 46.5996L105.502 48.2046L123.084 39.6293L122.301 38.0243Z"
            fill="black"></path>
        <path
            d="M88.1893 26.8034C88.1893 26.8034 88.4672 40.4562 96.384 39.0602C104.301 37.6643 100.237 24.6791 100.237 24.6791"
            stroke="black" stroke-width="3.57143"></path>
        <circle cx="49.4787" cy="33.1229" r="11.5512" transform="rotate(37.6789 49.4787 33.1229)"
            fill="#FF7DF3"></circle>
        <path
            d="M36.5414 24.1405C36.2217 23.4779 36.7957 22.7346 37.5177 22.8765L43.0068 23.9548L38.9723 29.1788L36.5414 24.1405Z"
            fill="#FF7DF3"></path>
        <path
            d="M8.92384 69.0059L22.1653 55.4847L67.5372 51.5152C71.4671 51.1714 74.9316 54.0785 75.2754 58.0083L77.1789 79.7653C77.5228 83.6952 74.6157 87.1597 70.6858 87.5035L18.1147 92.1029C14.1848 92.4467 10.7203 89.5397 10.3765 85.6098L8.92384 69.0059Z"
            fill="#FFF000"></path>
        <path
            d="M20.1192 55.6637L20.57 60.8168C20.9139 64.7467 18.0068 68.2112 14.0769 68.555L8.92384 69.0059L20.1192 55.6637Z"
            fill="#FFAA1D"></path>
        <path
            d="M80.3617 62.0659C81.046 62.3363 81.1278 63.2718 80.5009 63.657L75.7653 66.5664L75.1929 60.023L80.3617 62.0659Z"
            fill="#FFF000"></path>
    </symbol>

    <symbol id="arrow-left" viewBox="0 0 20 20" fill="none">
        <path
            d="M17.5 9.99998C17.5 10.1657 17.4341 10.3247 17.3169 10.4419C17.1997 10.5591 17.0407 10.625 16.875 10.625H4.63358L9.19218 15.1828C9.25024 15.2409 9.29631 15.3098 9.32773 15.3857C9.35916 15.4615 9.37534 15.5429 9.37534 15.625C9.37534 15.7071 9.35916 15.7884 9.32773 15.8643C9.29631 15.9402 9.25024 16.0091 9.19218 16.0672C9.13411 16.1252 9.06517 16.1713 8.9893 16.2027C8.91343 16.2342 8.83211 16.2503 8.74999 16.2503C8.66787 16.2503 8.58655 16.2342 8.51068 16.2027C8.43481 16.1713 8.36587 16.1252 8.3078 16.0672L2.6828 10.4422C2.62469 10.3841 2.57859 10.3152 2.54714 10.2393C2.51569 10.1634 2.4995 10.0821 2.4995 9.99998C2.4995 9.91785 2.51569 9.83652 2.54714 9.76064C2.57859 9.68477 2.62469 9.61584 2.6828 9.55779L8.3078 3.93279C8.42508 3.81552 8.58414 3.74963 8.74999 3.74963C8.91584 3.74963 9.0749 3.81552 9.19218 3.93279C9.30945 4.05007 9.37534 4.20913 9.37534 4.37498C9.37534 4.54083 9.30945 4.69989 9.19218 4.81717L4.63358 9.37498H16.875C17.0407 9.37498 17.1997 9.44083 17.3169 9.55804C17.4341 9.67525 17.5 9.83422 17.5 9.99998Z"
            fill="currentColor"></path>
    </symbol>

    <symbol id="radio-selected" viewBox="0 0 24 24" fill="none">
        <path
            d="M0 12.0002C0 5.37283 5.37258 0.000244141 12 0.000244141C18.6274 0.000244141 24 5.37283 24 12.0002C24 18.6277 18.6274 24.0002 12 24.0002C5.37258 24.0002 0 18.6277 0 12.0002Z"
            fill="#1C2024"></path>
        <circle cx="12" cy="12.0002" r="4" fill="#FCFCFD"></circle>
    </symbol>
    <symbol id="radio-unselected" viewBox="0 0 24 24" fill="none">
        <path
            d="M0.5 12.0002C0.5 5.64897 5.64873 0.500244 12 0.500244C18.3513 0.500244 23.5 5.64897 23.5 12.0002C23.5 18.3515 18.3513 23.5002 12 23.5002C5.64873 23.5002 0.5 18.3515 0.5 12.0002Z"
            fill="#E4E4E9"></path>
        <path
            d="M0.5 12.0002C0.5 5.64897 5.64873 0.500244 12 0.500244C18.3513 0.500244 23.5 5.64897 23.5 12.0002C23.5 18.3515 18.3513 23.5002 12 23.5002C5.64873 23.5002 0.5 18.3515 0.5 12.0002Z"
            stroke="#D3D4DB"></path>
    </symbol>
</svg>